<svg fill="none" height="32" viewBox="0 0 32 32" width="32" xmlns="http://www.w3.org/2000/svg" xmlns:xlink="http://www.w3.org/1999/xlink"><linearGradient id="a" gradientUnits="userSpaceOnUse" x1="6.18939" x2="27.5893" y1="-1.76988" y2="23.5072"><stop offset="0" stop-color="#dbcdf6"/><stop offset="1" stop-color="#fff"/></linearGradient><path clip-rule="evenodd" d="m16.861.00872486c-4.3145.13970514-8.31611 1.95092514-11.26813 5.10038514-6.093834 6.50149-5.762074 16.74859.73924 22.84259 2.28042 2.1372 5.02259 3.4809 7.88389 4.0483l.8577-2.1444c-2.6091-.4359-5.12163-1.6166-7.19212-3.5571-5.58962-5.2396-5.87485-14.0498-.63551-19.6396 2.53818-2.70783 5.97883-4.26549 9.68823-4.38548.1538-.00506.3076-.00733.4609-.00733 2.7979 0 5.4781.82994 7.7607 2.37758l.859-2.14782c-2.5642-1.627026-5.5301-2.49585-8.6182-2.49585-.1782 0-.3567.00290829-.5357.00872486zm1.6357 8.19964514h-2.1759-.0729l-.0272.06776-5.7256 14.31407-.0591.1478h.1591 2.3108.0737l.0266-.0688 1.4048-3.6121h6.1741l1.4225 3.6127.0268.0682h.0734 2.3925.1591l-.0591-.1478-3.6971-9.2428-.0271-.0676h-.073-2.3132-.1574l.057.1467 1.3114 3.3704h-4.3881l3.2844-8.44171.0571-.14682z" fill="url(#a)" fill-rule="evenodd"/></svg>